<?xml version="1.0" encoding="UTF-8"?>
<svg enable-background="new 0 0 8000 6000" version="1.1" viewBox="0 0 8000 6000" xml:space="preserve" xmlns="http://www.w3.org/2000/svg">
<style type="text/css">
	.st0{fill:#4DC2BD;}
	.st1{fill:#9E9FA1;}
	.st2{fill:#C4DA55;}
	.st3{fill:#515456;}
	.st4{fill:url(#b);}
	.st5{fill:#CCCCCD;}
	.st6{fill:#070909;}
	.st7{fill:#1E1F1F;}
	.st8{fill:url(#a);}
	.st9{fill:#2D2D2D;}
	.st10{fill:#242424;}
	.st11{fill:#191919;}
	.st12{fill:#0D0D0D;}
	.st13{fill:#CE3527;}
	.st14{fill:#B02C1E;}
	.st15{opacity:0.4;fill:#B2D6F1;}
	.st16{opacity:0.4;fill:#FFFFFF;}
	.st17{fill:#FFFFFF;}
</style>
	<rect class="st0" width="8e3" height="6e3"/>
			<path class="st1" d="m6128.4 4065.8c0 81.9-66.4 148.4-148.4 148.4h-3963.4c-81.9 0-148.4-66.4-148.4-148.4v-2682.7c0-81.9 66.4-148.4 148.4-148.4h3963.4c81.9 0 148.4 66.4 148.4 148.4v2682.7z"/>
			<path d="m6105.4 4066.6c0 81.5-65.7 147.5-146.8 147.5h-3920.6c-81.1 0-146.8-66-146.8-147.5v-2666.9c0-81.5 65.7-147.5 146.8-147.5h3920.7c81.1 0 146.8 66 146.8 147.5v2666.9z"/>
			<rect class="st2" x="2007.6" y="1415.3" width="3981.5" height="2489.1"/>
				<path class="st3" d="m1344.9 4511.8v32.5c61.6 57.1 278 59.4 278 59.4h4750.6s216.4-2.3 278-59.4v-32.5h-5306.6z"/>
				<linearGradient id="b" x1="1338" x2="6662" y1="4499" y2="4499" gradientUnits="userSpaceOnUse">
					<stop stop-color="#8B8C8B" offset="0"/>
					<stop stop-color="#D3D4D4" offset=".01"/>
					<stop stop-color="#626369" offset=".03"/>
					<stop stop-color="#64656B" offset=".033999"/>
					<stop stop-color="#79797E" offset=".075018"/>
					<stop stop-color="#8A8B8E" offset=".1231"/>
					<stop stop-color="#97989B" offset=".1829"/>
					<stop stop-color="#A0A1A3" offset=".2669"/>
					<stop stop-color="#A3A4A6" offset=".5"/>
					<stop stop-color="#A0A1A3" offset=".7331"/>
					<stop stop-color="#97989B" offset=".8171"/>
					<stop stop-color="#8A8B8E" offset=".8769"/>
					<stop stop-color="#79797E" offset=".925"/>
					<stop stop-color="#64656B" offset=".966"/>
					<stop stop-color="#626369" offset=".97"/>
					<stop stop-color="#D1D2D2" offset=".99"/>
					<stop stop-color="#8B8C8B" offset="1"/>
				</linearGradient>
				<path class="st4" d="m6661.9 4536.4v-94.8h-129.1-5194.8v94.8c-1 18.6 95.5 19.8 132.7 19.8h5055.3c38.4 0.1 139.4-2.5 135.9-19.8z"/>
				<path class="st5" d="m6657.1 4434.1c30.5 22.7-88.6 25.8-131 25.8h-5055.4c-42.5 0-161.8-1.6-126.2-28.7l460.1-327.5c53.3-41.5 107.2-47.1 143.4-47.1h4100.8c36.2 0 84.9 0 126.1 33l482.2 344.5z"/>
				<polygon class="st1" points="4776.7 4426.6 3223.3 4426.6 3280.9 4287 4719.1 4287"/>
							<polygon class="st6" points="2549.2 4109.8 2549.2 4096.6 2343.7 4096.6 2331.4 4108.1 2331.4 4121.2 2539.5 4121.2"/>
							<polygon class="st7" points="2539.5 4108.1 2331.4 4108.1 2343.7 4096.6 2549.2 4096.6"/>
							<polygon class="st6" points="2572 4108.2 2583.4 4096.6 2788.9 4096.6 2788.9 4110.8 2780.8 4121.2 2572.8 4121.2"/>
							<polygon class="st7" points="2572.8 4108.1 2583.4 4096.6 2788.9 4096.6 2780.8 4108.1"/>
							<polygon class="st6" points="2814.2 4108.1 2823.1 4096.6 3028.6 4096.6 3028.6 4116.2 3022.2 4121.2 2814.2 4121.2"/>
							<polygon class="st7" points="2814.2 4108.1 2823.1 4096.6 3028.6 4096.6 3022.2 4108.1"/>
							<polygon class="st6" points="3055.6 4108.1 3062.8 4096.6 3268.3 4096.6 3268.3 4117.5 3263.6 4121.2 3055.6 4121.2"/>
							<polygon class="st7" points="3055.6 4108.1 3062.8 4096.6 3268.3 4096.6 3263.6 4108.1"/>
							<polygon class="st6" points="3297 4108.1 3302.5 4096.6 3508 4096.6 3508 4116.8 3505 4121.2 3297 4121.2"/>
							<polygon class="st7" points="3297 4108.1 3302.5 4096.6 3508 4096.6 3505 4108.1"/>
							<polygon class="st6" points="3538.4 4108.1 3542.2 4096.6 3747.7 4096.6 3747.7 4115.7 3746.4 4121.2 3538.4 4121.2"/>
							<polygon class="st7" points="3538.4 4108.1 3542.2 4096.6 3747.7 4096.6 3746.4 4108.1"/>
							<polygon class="st6" points="3779.8 4108.1 3781.9 4096.6 3987.4 4096.6 3987.8 4108.1 3987.8 4121.2 3779.8 4121.2"/>
							<polygon class="st7" points="3779.8 4108.1 3781.9 4096.6 3987.4 4096.6 3987.8 4108.1"/>
							<polygon class="st6" points="4021.2 4108.1 4021.6 4096.6 4227.1 4096.6 4229.2 4108.1 4229.2 4121.2 4021.2 4121.2"/>
							<polygon class="st7" points="4021.2 4108.1 4021.6 4096.6 4227.1 4096.6 4229.2 4108.1"/>
							<polygon class="st6" points="4261.3 4115.6 4261.3 4096.6 4466.8 4096.6 4470.6 4108.1 4470.6 4121.2 4262.5 4121.2"/>
							<polygon class="st7" points="4262.5 4108.1 4261.3 4096.6 4466.8 4096.6 4470.6 4108.1"/>
							<polygon class="st6" points="4501 4115.8 4501 4096.6 4706.5 4096.6 4712 4108.1 4712 4121.2 4503.9 4121.2"/>
							<polygon class="st7" points="4503.9 4108.1 4501 4096.6 4706.5 4096.6 4712 4108.1"/>
							<polygon class="st6" points="4740.7 4115.2 4740.7 4096.6 4946.1 4096.6 4953.4 4108.1 4953.4 4121.2 4745.3 4121.2"/>
							<polygon class="st7" points="4745.3 4108.1 4740.7 4096.6 4946.1 4096.6 4953.4 4108.1"/>
							<polygon class="st6" points="4980.4 4115.8 4980.4 4096.6 5185.8 4096.6 5194.8 4108.1 5194.8 4121.2 4986.7 4121.2"/>
							<polygon class="st7" points="4986.7 4108.1 4980.4 4096.6 5185.8 4096.6 5194.8 4108.1"/>
							<polygon class="st6" points="5220.1 4115.9 5220.1 4096.6 5425.5 4096.6 5436.2 4108.1 5436.2 4121.2 5228.1 4121.2"/>
							<polygon class="st7" points="5228.1 4108.1 5220.1 4096.6 5425.5 4096.6 5436.2 4108.1"/>
							<polygon class="st6" points="5459.8 4114.6 5459.8 4096.6 5665.2 4096.6 5677.6 4108.1 5677.6 4121.2 5469.5 4121.2"/>
							<polygon class="st7" points="5469.5 4108.1 5677.6 4108.1 5665.2 4096.6 5459.8 4096.6"/>
							<polygon class="st6" points="5685.4 4125.2 5684.4 4127.6 5396.4 4127.6 5396.4 4117.3 5369.3 4114.2 5369.3 4127.6 5383.6 4146 5704.8 4146 5704.8 4132.7"/>
							<polygon class="st7" points="5704.8 4132.7 5383.6 4132.7 5369.3 4114.2 5685 4114.2"/>
							<polygon class="st6" points="5329.5 4121.5 5328.9 4127.6 5158.3 4127.6 5161.9 4124 5132.7 4114.2 5132.7 4127.6 5146.7 4146 5347.2 4146 5347.2 4132.7"/>
							<polygon class="st7" points="5132.7 4114.2 5333.3 4114.2 5347.2 4132.7 5146.7 4132.7"/>
							<polygon class="st6" points="5091 4120.4 5091 4127.6 4918.5 4127.6 4919.2 4123.5 4898.6 4114.2 4898.6 4127.6 4909.7 4146 5110.5 4146 5110.5 4132.7"/>
							<polygon class="st7" points="4898.6 4114.2 5099.1 4114.2 5110.5 4132.7 4909.7 4132.7"/>
							<polygon class="st6" points="4851.1 4116.6 4852.5 4127.6 4679.6 4127.6 4679.1 4120.9 4664.5 4114.2 4664.5 4127.6 4672.8 4146 4873.9 4146 4873.9 4132.7"/>
							<polygon class="st7" points="4664.5 4114.2 4865 4114.2 4873.9 4132.7 4672.8 4132.7"/>
							<polygon class="st6" points="4629.6 4116.4 4620.1 4121.7 4624.2 4127.6 4448.1 4127.6 4450.1 4125 4430.3 4114.2 4430.3 4127.6 4435.8 4146 4637.2 4146 4637.2 4132.7"/>
							<polygon class="st7" points="4430.3 4114.2 4630.9 4114.2 4637.2 4132.7 4435.8 4132.7"/>
							<polygon class="st6" points="4397.4 4130.8 4396.7 4127.6 4392.1 4127.6 4385.3 4123.5 4386.3 4127.6 4208.8 4127.6 4208.8 4119.2 4196.2 4114.2 4196.2 4127.6 4198.9 4146 4400.5 4146 4400.5 4132.7"/>
							<polygon class="st7" points="4196.2 4114.2 4396.7 4114.2 4400.5 4132.7 4198.9 4132.7"/>
							<polygon class="st6" points="4163 4131.8 4162.7 4127.6 3962.1 4127.6 3962 4146 4163.9 4146 4163.9 4132.7"/>
							<polygon class="st7" points="3962.1 4114.2 4162.7 4114.2 4163.9 4132.7 3962 4132.7"/>
							<polygon class="st6" points="3921.3 4120.9 3921.1 4127.6 3736.3 4127.6 3736.3 4126.6 3729.1 4123.5 3725.8 4132.7 3725.8 4146 3927.9 4146 3929.3 4127.6 3929.3 4114.2"/>
							<polygon class="st7" points="3728.7 4114.2 3929.3 4114.2 3927.9 4132.7 3725.8 4132.7"/>
							<polygon class="st6" points="3685.2 4118.5 3684.9 4127.6 3501.4 4127.6 3501.4 4121.5 3488.9 4132.7 3488.9 4146 3691.4 4146 3695.3 4127.6 3695.3 4114.2"/>
							<polygon class="st7" points="3494.7 4114.2 3695.3 4114.2 3691.4 4132.7 3488.9 4132.7"/>
							<polygon class="st6" points="3444.5 4120.9 3445.2 4127.6 3273 4127.6 3271.9 4123.5 3263.1 4127.6 3260.7 4127.6 3260.1 4129 3252.1 4132.7 3252.1 4146 3454.9 4146 3461.3 4127.6 3461.3 4114.2"/>
							<polygon class="st7" points="3260.7 4114.2 3461.3 4114.2 3454.9 4132.7 3252.1 4132.7"/>
							<polygon class="st6" points="3196.6 4123.5 3201 4127.6 3038.2 4127.6 3039 4123.5 3024 4123.5 3015.3 4132.7 3015.3 4146 3218.3 4146 3227.3 4127.6 3227.3 4114.2"/>
							<polygon class="st7" points="3026.7 4114.2 3227.3 4114.2 3218.3 4132.7 3015.3 4132.7"/>
							<polygon class="st6" points="2965.7 4116.5 2971.7 4127.6 2797.7 4127.6 2795.9 4121.2 2778.5 4132.7 2778.5 4146 2981.8 4146 2993.3 4127.6 2993.3 4114.2"/>
							<polygon class="st7" points="2792.7 4114.2 2993.3 4114.2 2981.8 4132.7 2778.5 4132.7"/>
							<polygon class="st6" points="2729.9 4117.8 2731.3 4127.6 2569 4127.6 2566.2 4119.4 2541.7 4132.7 2541.7 4146 2745.2 4146 2759.3 4127.6 2759.3 4114.2"/>
							<polygon class="st7" points="2558.7 4114.2 2759.3 4114.2 2745.2 4132.7 2541.7 4132.7"/>
							<polygon class="st6" points="2493.7 4125.5 2494.8 4127.6 2329.2 4127.6 2328 4121.2 2304.8 4132.7 2304.8 4146 2508.7 4146 2525.3 4127.6 2525.3 4114.2"/>
							<polygon class="st7" points="2324.7 4114.2 2525.3 4114.2 2508.7 4132.7 2304.8 4132.7"/>
							<polygon class="st6" points="5710.2 4150 5709.4 4154.1 5540.2 4154.1 5541.7 4147.8 5508 4139.3 5508 4154.1 5528.9 4175.7 5734.6 4175.7 5734.6 4160.8"/>
							<polygon class="st7" points="5528.9 4160.8 5734.6 4160.8 5711.8 4139.3 5508 4139.3"/>
							<polygon class="st6" points="5472.8 4146.8 5468.4 4154.1 5297.6 4154.1 5297.6 4150 5271.2 4139.3 5271.2 4154.1 5289.3 4175.7 5492.2 4175.7 5492.2 4160.8"/>
							<polygon class="st7" points="5289.3 4160.8 5492.2 4160.8 5474.1 4139.3 5271.2 4139.3"/>
							<polygon class="st6" points="5220.1 4146 5218.4 4154.1 5063.6 4154.1 5065.7 4146.7 5033.3 4139.3 5033.3 4154.1 5048.2 4175.7 5251.4 4175.7 5251.4 4160.8"/>
							<polygon class="st7" points="5251.4 4160.8 5048.2 4160.8 5033.3 4139.3 5236.4 4139.3"/>
							<polygon class="st6" points="4999.7 4156 4998.7 4154.1 4995.5 4154.1 4992.5 4152.9 4992.5 4154.1 4819.8 4154.1 4822.8 4145.4 4795.5 4139.3 4795.5 4154.1 4807 4175.7 5010.5 4175.7 5010.5 4160.8"/>
							<polygon class="st7" points="5010.5 4160.8 4807 4160.8 4795.5 4139.3 4998.7 4139.3"/>
							<polygon class="st6" points="4757.3 4150 4755.9 4154.1 4579.1 4154.1 4579.9 4148.4 4557.6 4139.3 4557.6 4154.1 4565.9 4175.7 4769.7 4175.7 4769.7 4160.8"/>
							<polygon class="st7" points="4769.7 4160.8 4565.9 4160.8 4557.6 4139.3 4761 4139.3"/>
							<polygon class="st6" points="4524.3 4158 4523.3 4154.1 4517.8 4154.1 4510.9 4150 4511.7 4154.1 4338.4 4154.1 4337.7 4146.7 4319.8 4139.3 4319.8 4154.1 4324.7 4175.7 4528.9 4175.7 4528.9 4160.8"/>
							<polygon class="st7" points="4528.9 4160.8 4324.7 4160.8 4319.8 4139.3 4523.3 4139.3"/>
							<polygon class="st6" points="4286.1 4158.8 4285.6 4154.1 4281.6 4154.1 4280.4 4152.9 4280.4 4154.1 4095.2 4154.1 4094.8 4144.7 4082 4139.3 4082 4154.1 4083.6 4175.7 4288 4175.7 4288 4160.8"/>
							<polygon class="st7" points="4288 4160.8 4083.6 4160.8 4082 4139.3 4285.6 4139.3"/>
							<polygon class="st6" points="4045.7 4152.7 4045.7 4154.1 3844.6 4154.1 3844.2 4159.9 3843 4160.8 3843 4175.7 4047.7 4175.7 4048.4 4154.1 4048.4 4139.3"/>
							<polygon class="st7" points="4047.7 4160.8 3843 4160.8 3844.6 4139.3 4048.4 4139.3"/>
							<polygon class="st6" points="3800.5 4151.6 3800.2 4154.1 3620.4 4154.1 3621 4147.7 3611.6 4154.1 3606.9 4154.1 3606 4158 3601.9 4160.8 3601.9 4175.7 3807 4175.7 3810.7 4154.1 3810.7 4139.3"/>
							<polygon class="st7" points="3807 4160.8 3601.9 4160.8 3606.9 4139.3 3810.7 4139.3"/>
							<polygon class="st6" points="3552.8 4151.3 3552.8 4154.1 3383.3 4154.1 3383.8 4150 3375.1 4154.1 3369.1 4154.1 3367.8 4157.5 3360.9 4160.8 3360.9 4175.7 3566.2 4175.7 3573.1 4154.1 3573.1 4139.3"/>
							<polygon class="st7" points="3566.2 4160.8 3360.9 4160.8 3369.1 4139.3 3573.1 4139.3"/>
							<polygon class="st6" points="3313.7 4143.9 3314.5 4154.1 3138.5 4154.1 3138.5 4148.7 3119.8 4160.8 3119.8 4175.7 3325.5 4175.7 3335.5 4154.1 3335.5 4139.3"/>
							<polygon class="st7" points="3325.5 4160.8 3119.8 4160.8 3131.3 4139.3 3335.5 4139.3"/>
							<polygon class="st6" points="3072.3 4144.9 3076.7 4154.1 2897.6 4154.1 2897.6 4150 2878.8 4160.8 2878.8 4175.7 3084.7 4175.7 3097.9 4154.1 3097.9 4139.3"/>
							<polygon class="st7" points="3084.7 4160.8 2878.8 4160.8 2893.6 4139.3 3097.9 4139.3"/>
							<polygon class="st6" points="2842.6 4140.5 2841.7 4154.1 2663.7 4154.1 2665.5 4146.1 2637.7 4160.8 2637.7 4175.7 2844 4175.7 2860.3 4154.1 2860.3 4139.3"/>
							<polygon class="st7" points="2844 4160.8 2637.7 4160.8 2655.8 4139.3 2860.3 4139.3"/>
							<polygon class="st6" points="2596.2 4147.3 2595.3 4155.9 2311.4 4155.9 2315.5 4146.2 2274.5 4160.8 2274.5 4177.5 2604 4177.5 2621.9 4155.9 2621.9 4139.3"/>
							<polygon class="st7" points="2621.9 4139.3 2297.7 4139.3 2274.5 4160.8 2604 4160.8"/>
							<polygon class="st6" points="5317.8 4175.8 5315.9 4181.5 5151 4181.5 5153.8 4175.8 5112.4 4167.5 5112.4 4181.5 5126.9 4202.4 5335.7 4202.4 5335.7 4188.4"/>
							<polygon class="st7" points="5126.9 4188.4 5335.7 4188.4 5318.8 4167.5 5112.4 4167.5"/>
							<polygon class="st6" points="5742.5 4182.3 5741.7 4181.5 5739.8 4181.5 5727.5 4177.9 5728 4181.5 5385.7 4181.5 5385.7 4174.5 5352.6 4167.5 5352.6 4181.5 5369.3 4202.4 5763.9 4202.4 5763.9 4188.4"/>
							<polygon class="st7" points="5369.3 4188.4 5763.9 4188.4 5741.7 4167.5 5352.6 4167.5"/>
							<polygon class="st6" points="5063.9 4174.2 5065.3 4181.5 4893.7 4181.5 4893.7 4174.2 4870.3 4167.5 4870.3 4181.5 4881.6 4202.4 5090.4 4202.4 5090.4 4188.4"/>
							<polygon class="st7" points="5090.4 4188.4 4881.6 4188.4 4870.3 4167.5 5076.6 4167.5"/>
							<polygon class="st6" points="4834.7 4181.8 4834.5 4181.5 4834.1 4181.5 4820.1 4172.7 4820.1 4181.5 4652.6 4181.5 4652.6 4174.5 4628.1 4167.5 4628.1 4181.5 4636.3 4202.4 4845.1 4202.4 4845.1 4188.4"/>
							<polygon class="st7" points="4845.1 4188.4 4636.3 4188.4 4628.1 4167.5 4834.5 4167.5"/>
							<polygon class="st6" points="4587.2 4175.8 4586.2 4181.5 4411.9 4181.5 4411.9 4175.8 4386 4167.5 4386 4181.5 4391 4202.4 4599.8 4202.4 4599.8 4188.4"/>
							<polygon class="st7" points="4599.8 4188.4 4391 4188.4 4386 4167.5 4592.3 4167.5"/>
							<polygon class="st6" points="4351.2 4186.5 4350.1 4181.5 4342.6 4181.5 4330.2 4174.2 4330.2 4181.5 4157.5 4181.5 4157.5 4174.5 4143.8 4167.5 4143.8 4181.5 4145.7 4202.4 4354.5 4202.4 4354.5 4188.4"/>
							<polygon class="st7" points="4354.5 4188.4 4145.7 4188.4 4143.8 4167.5 4350.1 4167.5"/>
							<polygon class="st6" points="4109 4188 4108.6 4181.5 3902.2 4181.5 3901.9 4188 3901 4188.4 3901 4202.4 4109.8 4202.4 4109.8 4188.4"/>
							<polygon class="st7" points="4109.8 4188.4 3901 4188.4 3902.2 4167.5 4108.6 4167.5"/>
							<polygon class="st6" points="3852 4173.2 3852 4181.5 3673.9 4181.5 3673.9 4174.1 3664.3 4181.5 3660.7 4181.5 3660 4184.7 3656.3 4187.5 3656.3 4188.4 3656.3 4202.4 3865.1 4202.4 3867 4181.5 3867 4167.5"/>
							<polygon class="st7" points="3865.1 4188.4 3656.3 4188.4 3660.7 4167.5 3867 4167.5"/>
							<polygon class="st6" points="3612.1 4174.5 3610.6 4181.5 3428.1 4181.5 3428.1 4174 3419.3 4181.5 3418.5 4181.5 3418.2 4182.4 3411 4188.4 3411 4202.4 3619.8 4202.4 3624.9 4181.5 3624.9 4167.5"/>
							<polygon class="st7" points="3619.8 4188.4 3411 4188.4 3418.5 4167.5 3624.9 4167.5"/>
							<polygon class="st6" points="3354.2 4177.9 3354.2 4181.5 3183.7 4181.5 3182 4176.7 3165.7 4188.4 3165.7 4202.4 3374.6 4202.4 3382.7 4181.5 3382.7 4167.5"/>
							<polygon class="st7" points="3374.6 4188.4 3165.7 4188.4 3176.4 4167.5 3382.7 4167.5"/>
							<polygon class="st6" points="3117.1 4177.9 3117.1 4181.5 2956.1 4181.5 2955.2 4174.3 2937.6 4181.5 2934.2 4181.5 2933 4183.3 2920.4 4188.4 2920.4 4202.4 3129.3 4202.4 3140.6 4181.5 3140.6 4167.5"/>
							<polygon class="st7" points="3129.3 4188.4 2920.4 4188.4 2934.2 4167.5 3140.6 4167.5"/>
							<polygon class="st6" points="2873 4176.1 2874.4 4181.5 2700.5 4181.5 2701.8 4174 2675.1 4188.4 2675.1 4202.4 2884 4202.4 2898.4 4181.5 2898.4 4167.5"/>
							<polygon class="st7" points="2884 4188.4 2675.1 4188.4 2692 4167.5 2898.4 4167.5"/>
							<polygon class="st6" points="2631.8 4172.8 2631.8 4181.5 2272.4 4181.5 2272.4 4174.9 2244.8 4188.4 2244.8 4202.4 2637.5 4202.4 2655 4181.5 2655 4167.5"/>
							<polygon class="st7" points="2244.8 4188.4 2637.5 4188.4 2655 4167.5 2267.3 4167.5"/>
							<polygon class="st6" points="5214 4206.5 5213.3 4210.6 5038.9 4210.6 5038.9 4203.2 5006.5 4195.8 5006.5 4210.6 5020.8 4232 5233.5 4232 5233.5 4217.2"/>
							<polygon class="st7" points="5233.5 4217.2 5020.8 4217.2 5006.5 4195.8 5217.8 4195.8"/>
							<polygon class="st6" points="5767.7 4202.4 5765 4210.6 5285.1 4210.6 5287.7 4203.5 5253.9 4195.8 5253.9 4210.6 5271.2 4232 5794.5 4232 5794.5 4217.2"/>
							<polygon class="st7" points="5794.5 4217.2 5271.2 4217.2 5253.9 4195.8 5771.8 4195.8"/>
							<polygon class="st6" points="4970.7 4203.5 4966.6 4210.6 4782.4 4210.6 4780.9 4201 4760.4 4195.8 4760.4 4210.6 4771.3 4232 4984 4232 4984 4217.2"/>
							<polygon class="st7" points="4771.3 4217.2 4760.4 4195.8 4971.7 4195.8 4984 4217.2"/>
							<polygon class="st6" points="4725.1 4206.5 4712 4207.9 4714.6 4210.6 4533.1 4210.6 4533.8 4204.8 4514.2 4195.8 4514.2 4210.6 4521.8 4232 4734.6 4232 4734.6 4217.2"/>
							<polygon class="st7" points="4521.8 4217.2 4514.2 4195.8 4725.6 4195.8 4734.6 4217.2"/>
							<polygon class="st6" points="4477.3 4202.8 4468.2 4210.6 4282.4 4210.6 4284.9 4202.1 4268.1 4195.8 4268.1 4210.6 4272.4 4232 4485.1 4232 4485.1 4217.2"/>
							<polygon class="st7" points="4272.4 4217.2 4268.1 4195.8 4479.4 4195.8 4485.1 4217.2"/>
							<polygon class="st6" points="4233.4 4211.8 4233.3 4210.6 4232.9 4210.6 4229.1 4201.4 4223.7 4210.6 4031.6 4210.6 4032 4203.8 4022 4195.8 4022 4210.6 4022.9 4232 4235.6 4232 4235.6 4217.2"/>
							<polygon class="st7" points="4022.9 4217.2 4022 4195.8 4233.3 4195.8 4235.6 4217.2"/>
							<polygon class="st6" points="3981.3 4202.9 3981.9 4210.6 3787.8 4210.6 3789 4200.9 3780.2 4210.6 3776.5 4210.6 3776 4215.2 3774.2 4217.2 3774.2 4232 3986.9 4232 3987.8 4210.6 3987.8 4195.8"/>
							<polygon class="st7" points="3774.2 4217.2 3776.5 4195.8 3987.8 4195.8 3986.9 4217.2"/>
							<polygon class="st6" points="3728.2 4206.5 3727.9 4210.6 3540.5 4210.6 3541 4206.5 3534.7 4210.6 3530.4 4210.6 3529.5 4214.1 3524.7 4217.2 3524.7 4232 3737.4 4232 3741.7 4210.6 3741.7 4195.8"/>
							<polygon class="st7" points="3524.7 4217.2 3530.4 4195.8 3741.7 4195.8 3737.4 4217.2"/>
							<polygon class="st6" points="3474.6 4203.2 3474.2 4210.6 3307.3 4210.6 3308.1 4204.2 3291.8 4210.6 3284.2 4210.6 3282.7 4214.2 3275.3 4217.2 3275.3 4232 3488 4232 3495.6 4210.6 3495.6 4195.8"/>
							<polygon class="st7" points="3275.3 4217.2 3284.2 4195.8 3495.6 4195.8 3488 4217.2"/>
							<polygon class="st6" points="3224 4207.7 3225.5 4210.6 3056.7 4210.6 3061.5 4203.7 3043.2 4210.6 3038.1 4210.6 3036.7 4213.1 3025.8 4217.2 3025.8 4232 3238.5 4232 3249.4 4210.6 3249.4 4195.8"/>
							<polygon class="st7" points="3025.8 4217.2 3038.1 4195.8 3249.4 4195.8 3238.5 4217.2"/>
							<polygon class="st6" points="2973.5 4203.9 2976.8 4210.6 2802.1 4210.6 2803.3 4204.9 2776.3 4217.2 2776.3 4232 2989.1 4232 3003.3 4210.6 3003.3 4195.8"/>
							<polygon class="st7" points="2776.3 4217.2 2989.1 4217.2 3003.3 4195.8 2792 4195.8"/>
							<polygon class="st6" points="2721.1 4206.5 2723.3 4210.6 2246.6 4210.6 2249.7 4201.1 2213.7 4217.2 2213.7 4232 2739.6 4232 2756.7 4210.6 2756.7 4195.8"/>
							<polygon class="st7" points="2739.6 4217.2 2213.7 4217.2 2236.7 4195.8 2756.7 4195.8"/>
							<polygon class="st6" points="5601.9 4237.6 5601.9 4250 5611.8 4262.8 5829.8 4262.8 5829.8 4250.4"/>
							<polygon class="st7" points="5816.2 4237.6 5601.9 4237.6 5611.8 4250.4 5829.8 4250.4"/>
							<polygon class="st6" points="5552.6 4233.7 5551.2 4237.6 5367.5 4237.6 5365.4 4231.2 5338.3 4224.8 5338.3 4237.6 5358.7 4263.2 5577.1 4263.2 5577.1 4250.4"/>
							<polygon class="st7" points="5577.1 4250.4 5358.7 4250.4 5338.3 4224.8 5554.1 4224.8"/>
							<polygon class="st6" points="5096.1 4237.6 5096.1 4250.4 5106 4263.2 5322.5 4263.2 5322.5 4250.4"/>
							<polygon class="st7" points="5312.6 4237.6 5096.1 4237.6 5106 4250.4 5322.5 4250.4"/>
							<polygon class="st6" points="5057.7 4242.9 5054.8 4237.6 5049.8 4237.6 5044.4 4234.1 5044.4 4237.6 4855.8 4237.6 4856.4 4232 4836.9 4224.8 4836.9 4237.6 4848.7 4263.2 5069.2 4263.2 5069.2 4250.4"/>
							<polygon class="st7" points="5069.2 4250.4 4848.7 4250.4 4836.9 4224.8 5054.8 4224.8"/>
							<polygon class="st6" points="4803 4244.7 4799.7 4237.6 4792.4 4237.6 4782 4230.8 4783.6 4237.6 4547.8 4237.6 4550.8 4230.8 4525.3 4224.8 4525.3 4237.6 4533.8 4263.2 4811.7 4263.2 4811.7 4250.4"/>
							<polygon class="st7" points="4811.7 4250.4 4533.8 4250.4 4525.3 4224.8 4799.7 4224.8"/>
							<polygon class="st6" points="4490.3 4246.9 4487.5 4237.6 3279.5 4237.6 3279.5 4232 3273.7 4237.6 3271.4 4237.6 3269.7 4241.5 3260.4 4250.4 3260.4 4263.2 4495.4 4263.2 4495.4 4250.4"/>
							<polygon class="st7" points="4495.4 4250.4 3260.4 4250.4 3271.4 4224.8 4487.5 4224.8"/>
							<polygon class="st6" points="3210.6 4233.7 3212.1 4237.6 2986.4 4237.6 2989.1 4232 2974.8 4237.6 2958.7 4237.6 2953.3 4246.2 2942.4 4250.4 2942.4 4263.2 3222.5 4263.2 3234.2 4237.6 3234.2 4224.8"/>
							<polygon class="st7" points="3222.5 4250.4 2942.4 4250.4 2958.7 4224.8 3234.2 4224.8"/>
							<polygon class="st6" points="2895.1 4235.8 2896.8 4237.6 2718.7 4237.6 2719 4234.1 2712.4 4237.6 2708.3 4237.6 2705.4 4241.4 2688.4 4250.4 2688.4 4263.2 2905.5 4263.2 2923 4237.6 2923 4224.8"/>
							<polygon class="st7" points="2905.5 4250.4 2688.4 4250.4 2708.3 4224.8 2923 4224.8"/>
						<polygon class="st6" points="2671.8 4224.8 2671.8 4237.6 2656.3 4250.4 2646.8 4236.2"/>
							<polygon class="st6" points="2460.8 4237.6 2461.2 4233.3 2433.1 4250.4 2433.1 4263.2 2651.8 4263.2 2671.8 4237.6"/>
							<polygon class="st7" points="2651.8 4250.4 2433.1 4250.4 2456.9 4224.8 2671.8 4224.8"/>
							<polygon class="st6" points="2393.5 4230.4 2396.7 4237.6 2213.5 4237.6 2213.7 4235.3 2208.2 4237.6 2205.4 4237.6 2203.1 4239.8 2177.8 4250.4 2177.8 4263.2 2398.2 4263.2 2420.7 4237.6 2420.7 4224.8"/>
							<polygon class="st7" points="2398.2 4250.4 2177.8 4250.4 2205.4 4224.8 2420.7 4224.8"/>
			<linearGradient id="a" x1="3634.1" x2="4366" y1="4483.3" y2="4483.3" gradientUnits="userSpaceOnUse">
				<stop stop-color="#757578" offset="0"/>
				<stop stop-color="#848489" offset=".037768"/>
				<stop stop-color="#94949A" offset=".090042"/>
				<stop stop-color="#A0A0A7" offset=".1551"/>
				<stop stop-color="#A8A9B0" offset=".2465"/>
				<stop stop-color="#ABABB2" offset=".5"/>
				<stop stop-color="#A8A9B0" offset=".754"/>
				<stop stop-color="#A0A1A8" offset=".8455"/>
				<stop stop-color="#94959C" offset=".9107"/>
				<stop stop-color="#85868C" offset=".9631"/>
				<stop stop-color="#76787D" offset="1"/>
			</linearGradient>
			<path class="st8" d="m4318.7 4448.5h-318.7s-291.7 0-318.7 0-47.3 11.5-47.3 11.5v3.8c0 30 24.3 54.3 54.3 54.3h623.2c30 0 54.3-24.3 54.3-54.3v-3.8c0.2-0.1-20.2-11.5-47.1-11.5z"/>
			<polygon class="st9" points="4945 2137 4825 3002 4132.2 3699.3 3200.6 3115.6 3060.5 2209.8"/>
			<polygon class="st10" points="4945 2137 4880.9 2139.5 4159.3 2725.6 4132.2 3699.3 4825 3002"/>
			<path class="st11" d="m4122.5 2717.2l-1068-448.8c-22.2-8.6-32.4-13.4-36.4-40.9l-43.3-269.3c-2.9-22.3 5.9-27.5 30.6-34.7l943.8-271.7 1038.4 209.4c26.9 4.1 37.9 17.3 37.9 38.6l-41.4 249.5c-4.4 25.4-8.5 29.5-28.7 43.7l-770.9 522.1c-13.1 9.4-26.3 17.1-62 2.1z"/>
			<path class="st12" d="m4987.7 1861.3l-129.6-26.1-505.5 200.3-182.8 314.2-10.5 375.9c10.8-0.7 18.1-5.3 25.3-10.3l770.9-522.1c20.2-14.3 24.3-18.3 28.7-43.7l41.4-249.5c0.1-21.4-11-34.6-37.9-38.7z"/>
			<path d="m4987.7 1861.3l-1038.4-209.4-943.8 271.7c-17.1 4.9-26.6 9-29.8 18.4l1172 403.1c17 5.8 26.2 6.4 36.9 0l835.2-467.4c-5.9-8.4-16.3-14-32.1-16.4z"/>
							<rect transform="matrix(.7071 -.7071 .7071 .7071 -428.65 4778.9)" x="5477" y="2780.2" width="154.5" height="253.3"/>
						<path d="m6055 3492.3c-18 17.9-46.8 18.2-64.5 0.5l-213.1-213.1c-17.7-17.7-17.4-46.5 0.5-64.5l83.5-83.5c18-17.9 46.8-18.2 64.5-0.5l213.1 213.1c17.7 17.7 17.4 46.5-0.5 64.5l-83.5 83.5z"/>
							<rect class="st13" transform="matrix(.7064 -.7078 .7078 .7064 -537.04 5049.2)" x="5712.8" y="2833.7" width="210" height="676.5"/>
							<rect class="st14" transform="matrix(.7064 -.7078 .7078 .7064 -500.74 5064)" x="5800.4" y="2797.3" width="107.4" height="676.5"/>
					<path d="m5157 1731.7c-357.7-72-705.9 159.7-777.9 517.3-72 357.7 159.7 705.9 517.3 777.9 357.7 72 705.9-159.7 777.9-517.3 72-357.7-159.6-706-517.3-777.9zm-247.4 1229.9c-321.6-64.7-529.9-377.8-465.2-699.4s377.8-529.9 699.4-465.2 529.8 377.8 465.2 699.4c-64.7 321.6-377.8 529.9-699.4 465.2z"/>
				<ellipse class="st15" transform="matrix(.7071 -.7071 .7071 .7071 -210.12 4251.3)" cx="5026.7" cy="2379.3" rx="594" ry="594"/>
		<path class="st16" d="m4914.3 1862.8c23.8 32.1-35.9 116.6-133.2 188.7-97.4 72-195.6 104.4-219.4 72.2-23.8-32.1 35.8-116.6 133.2-188.7 97.4-72 195.6-104.3 219.4-72.2z"/>
		<path class="st17" d="m1965.5 5124.9c18.7-3.9 48.3-6.9 78.3-6.9 42.9 0 70.4 7.4 91.1 24.1 17.2 12.8 27.6 32.5 27.6 58.6 0 32-21.2 60.1-56.2 72.9v1c31.5 7.9 68.5 34 68.5 83.2 0 28.6-11.3 50.2-28.1 66.5-23.2 21.2-60.6 31-114.8 31-29.6 0-52.2-2-66.5-3.9v-326.5zm42.9 135.9h38.9c45.3 0 71.9-23.6 71.9-55.7 0-38.9-29.6-54.2-72.9-54.2-19.7 0-31 1.5-37.9 3v106.9zm0 159.1c8.4 1.5 20.7 2 36 2 44.3 0 85.2-16.3 85.2-64.5 0-45.3-38.9-64-85.7-64h-35.5v126.5z"/>
		<path class="st17" d="m2232.5 5120.4h42.9v296h141.9v36h-184.7v-332z"/>
		<path class="st17" d="m2518.6 5348l-34.5 104.4h-44.3l112.8-332h51.7l113.3 332h-45.8l-35.5-104.4h-117.7zm108.9-33.5l-32.5-95.6c-7.4-21.7-12.3-41.4-17.2-60.6h-1c-4.9 19.7-10.3 39.9-16.7 60.1l-32.5 96h99.9z"/>
		<path class="st17" d="m2991 5441.6c-15.8 7.9-47.3 15.8-87.7 15.8-93.6 0-164-59.1-164-168 0-103.9 70.4-174.4 173.4-174.4 41.4 0 67.5 8.9 78.8 14.8l-10.3 35c-16.3-7.9-39.4-13.8-67-13.8-77.8 0-129.5 49.7-129.5 136.9 0 81.3 46.8 133.5 127.6 133.5 26.1 0 52.7-5.4 69.9-13.8l8.8 34z"/>
		<path class="st17" d="m3044.7 5120.4h42.9v160.1h1.5c8.9-12.8 17.7-24.6 26.1-35.5l101.5-124.6h53.2l-120.2 140.9 129.5 191.1h-50.7l-109.3-163-31.5 36.4v126.6h-42.9v-332z"/>
		<path class="st17" d="m3416.1 5124.9c18.7-3.9 48.3-6.9 78.3-6.9 42.9 0 70.4 7.4 91.1 24.1 17.2 12.8 27.6 32.5 27.6 58.6 0 32-21.2 60.1-56.2 72.9v1c31.5 7.9 68.5 34 68.5 83.2 0 28.6-11.3 50.2-28.1 66.5-23.1 21.2-60.6 31-114.8 31-29.6 0-52.2-2-66.5-3.9v-326.5zm42.8 135.9h38.9c45.3 0 71.9-23.6 71.9-55.7 0-38.9-29.6-54.2-72.9-54.2-19.7 0-31 1.5-37.9 3v106.9zm0 159.1c8.4 1.5 20.7 2 36 2 44.3 0 85.2-16.3 85.2-64.5 0-45.3-38.9-64-85.7-64h-35.5v126.5z"/>
		<path class="st17" d="m3966.7 5283c0 114.3-69.5 174.9-154.2 174.9-87.7 0-149.2-68-149.2-168.5 0-105.4 65.5-174.4 154.2-174.4 90.6 0 149.2 69.5 149.2 168zm-257.6 5.4c0 70.9 38.4 134.5 105.9 134.5 68 0 106.4-62.6 106.4-137.9 0-66-34.5-135-105.9-135-70.9 0-106.4 65.5-106.4 138.4z"/>
		<path class="st17" d="m4190.9 5452.4l-42.4-73.4c-17.2-28.1-28.1-46.3-38.4-65.5h-1c-9.4 19.2-18.7 36.9-36 66l-39.9 72.9h-49.2l101.5-168-97.5-164h49.7l43.8 77.8c12.3 21.7 21.7 38.4 30.5 56.2h1.5c9.4-19.7 17.7-35 30-56.2l45.3-77.8h49.3l-101 161.6 103.4 170.4h-49.6z"/>
		<path class="st17" d="M4437.6,5156.9h-101v-36.4h245.8v36.4H4481v295.5h-43.3V5156.9z"/>
		<path class="st17" d="m4791.3 5296.8h-129v119.7h143.8v36h-186.7v-332h179.3v36h-136.4v104.9h129v35.4z"/>
		<path class="st17" d="m4855.8 5400.2c19.2 11.8 47.3 21.7 76.8 21.7 43.8 0 69.5-23.2 69.5-56.6 0-31-17.7-48.8-62.6-66-54.2-19.2-87.7-47.3-87.7-94.1 0-51.7 42.9-90.1 107.4-90.1 34 0 58.6 7.9 73.4 16.3l-11.8 35c-10.8-5.9-33-15.8-63-15.8-45.3 0-62.6 27.1-62.6 49.7 0 31 20.2 46.3 66 64 56.2 21.7 84.7 48.8 84.7 97.5 0 51.2-37.9 95.6-116.2 95.6-32 0-67-9.4-84.7-21.2l10.8-36z"/>
		<path class="st17" d="m5167.6 5156.9h-101v-36.4h245.8v36.4h-101.5v295.5h-43.3v-295.5z"/>
		<path class="st17" d="m5392.2 5120.4v332h-42.9v-332h42.9z"/>
		<path class="st17" d="m5467.1 5452.4v-332h46.8l106.4 168c24.6 38.9 43.8 73.9 59.6 107.9l1-0.5c-3.9-44.3-4.9-84.7-4.9-136.4v-138.9h40.4v332h-43.4l-105.4-168.5c-23.2-36.9-45.3-74.9-62.1-110.8l-1.5 0.5c2.5 41.9 3.4 81.8 3.4 136.9v141.9h-40.3z"/>
		<path class="st17" d="m6043.9 5437.6c-19.2 6.9-57.1 18.2-102 18.2-50.2 0-91.6-12.8-124.1-43.8-28.6-27.6-46.3-71.9-46.3-123.6 0.5-99 68.5-171.4 179.8-171.4 38.4 0 68.5 8.4 82.7 15.3l-10.3 35c-17.7-7.9-39.9-14.3-73.4-14.3-80.8 0-133.5 50.2-133.5 133.5 0 84.2 50.7 134 128.1 134 28.1 0 47.3-3.9 57.1-8.9v-99h-67.5v-34.6h109.3v159.6z"/>
</svg>
