<?xml version="1.0" encoding="utf-8"?>
<!-- Generator: Adobe Illustrator 22.0.0, SVG Export Plug-In . SVG Version: 6.00 Build 0)  -->
<svg version="1.1" xmlns="http://www.w3.org/2000/svg" xmlns:xlink="http://www.w3.org/1999/xlink" x="0px" y="0px"
	 viewBox="0 0 8000 6000" style="enable-background:new 0 0 8000 6000;" xml:space="preserve">
<style type="text/css">
	.st0{fill:#4DC2BD;}
	.st1{fill:#9E9FA1;}
	.st2{fill:#C4DA55;}
	.st3{fill:#515456;}
	.st4{fill:url(#SVGID_1_);}
	.st5{fill:#CCCCCD;}
	.st6{fill:#070909;}
	.st7{fill:#1E1F1F;}
	.st8{fill:url(#SVGID_2_);}
	.st9{fill:#E3E3E3;}
	.st10{fill:#D3D4D5;}
	.st11{fill:#EFEFEF;}
	.st12{fill:#D9D9DA;}
	.st13{fill:#FFFFFF;}
	.st14{fill:#CE3527;}
	.st15{fill:#B02C1E;}
	.st16{opacity:0.4;fill:#B2D6F1;}
	.st17{opacity:0.4;fill:#FFFFFF;}
</style>
<g id="Layer_13">
	<rect class="st0" width="8000" height="6000"/>
</g>
<g id="Layer_6">
	<g>
		<g>
			<path class="st1" d="M6128.4,4065.8c0,81.9-66.4,148.4-148.4,148.4H2016.6c-81.9,0-148.4-66.4-148.4-148.4V1383.1
				c0-81.9,66.4-148.4,148.4-148.4H5980c81.9,0,148.4,66.4,148.4,148.4V4065.8z"/>
			<path d="M6105.4,4066.6c0,81.5-65.7,147.5-146.8,147.5H2038c-81.1,0-146.8-66-146.8-147.5V1399.7c0-81.5,65.7-147.5,146.8-147.5
				h3920.7c81.1,0,146.8,66,146.8,147.5V4066.6z"/>
			<rect x="2007.6" y="1415.3" class="st2" width="3981.5" height="2489.1"/>
		</g>
		<g>
			<g>
				<path class="st3" d="M1344.9,4511.8v32.5c61.6,57.1,278,59.4,278,59.4h4750.6c0,0,216.4-2.3,278-59.4v-32.5H3336.7H1344.9z"/>
				<linearGradient id="SVGID_1_" gradientUnits="userSpaceOnUse" x1="1337.9814" y1="4498.958" x2="6662.0083" y2="4498.958">
					<stop  offset="0" style="stop-color:#8B8C8B"/>
					<stop  offset="1.000000e-02" style="stop-color:#D3D4D4"/>
					<stop  offset="3.000000e-02" style="stop-color:#626369"/>
					<stop  offset="3.399880e-02" style="stop-color:#64656B"/>
					<stop  offset="7.501756e-02" style="stop-color:#79797E"/>
					<stop  offset="0.1231" style="stop-color:#8A8B8E"/>
					<stop  offset="0.1829" style="stop-color:#97989B"/>
					<stop  offset="0.2669" style="stop-color:#A0A1A3"/>
					<stop  offset="0.5" style="stop-color:#A3A4A6"/>
					<stop  offset="0.7331" style="stop-color:#A0A1A3"/>
					<stop  offset="0.8171" style="stop-color:#97989B"/>
					<stop  offset="0.8769" style="stop-color:#8A8B8E"/>
					<stop  offset="0.925" style="stop-color:#79797E"/>
					<stop  offset="0.966" style="stop-color:#64656B"/>
					<stop  offset="0.97" style="stop-color:#626369"/>
					<stop  offset="0.99" style="stop-color:#D1D2D2"/>
					<stop  offset="1" style="stop-color:#8B8C8B"/>
				</linearGradient>
				<path class="st4" d="M6661.9,4536.4L6661.9,4536.4l0-94.8h-129.1l-5194.8,0v94.8h0c-1,18.6,95.5,19.8,132.7,19.8H6526
					C6564.4,4556.3,6665.4,4553.7,6661.9,4536.4z"/>
				<path class="st5" d="M6657.1,4434.1c30.5,22.7-88.6,25.8-131,25.8H1470.7c-42.5,0-161.8-1.6-126.2-28.7l460.1-327.5
					c53.3-41.5,107.2-47.1,143.4-47.1h4100.8c36.2,0,84.9,0,126.1,33L6657.1,4434.1z"/>
			</g>
			<g>
				<polygon class="st1" points="4776.7,4426.6 3223.3,4426.6 3280.9,4287 4719.1,4287 				"/>
				<g>
					<g>
						<g>
							<polygon class="st6" points="2549.2,4109.8 2549.2,4096.6 2343.7,4096.6 2331.4,4108.1 2331.4,4121.2 2539.5,4121.2 							
								"/>
							<polygon class="st7" points="2539.5,4108.1 2331.4,4108.1 2343.7,4096.6 2549.2,4096.6 							"/>
						</g>
						<g>
							<polygon class="st6" points="2572,4108.2 2583.4,4096.6 2788.9,4096.6 2788.9,4110.8 2780.8,4121.2 2572.8,4121.2 							"/>
							<polygon class="st7" points="2572.8,4108.1 2583.4,4096.6 2788.9,4096.6 2780.8,4108.1 							"/>
						</g>
						<g>
							<polygon class="st6" points="2814.2,4108.1 2823.1,4096.6 3028.6,4096.6 3028.6,4116.2 3022.2,4121.2 2814.2,4121.2 							
								"/>
							<polygon class="st7" points="2814.2,4108.1 2823.1,4096.6 3028.6,4096.6 3022.2,4108.1 							"/>
						</g>
						<g>
							<polygon class="st6" points="3055.6,4108.1 3062.8,4096.6 3268.3,4096.6 3268.3,4117.5 3263.6,4121.2 3055.6,4121.2 							
								"/>
							<polygon class="st7" points="3055.6,4108.1 3062.8,4096.6 3268.3,4096.6 3263.6,4108.1 							"/>
						</g>
						<g>
							<polygon class="st6" points="3297,4108.1 3302.5,4096.6 3508,4096.6 3508,4116.8 3505,4121.2 3297,4121.2 							"/>
							<polygon class="st7" points="3297,4108.1 3302.5,4096.6 3508,4096.6 3505,4108.1 							"/>
						</g>
						<g>
							<polygon class="st6" points="3538.4,4108.1 3542.2,4096.6 3747.7,4096.6 3747.7,4115.7 3746.4,4121.2 3538.4,4121.2 							
								"/>
							<polygon class="st7" points="3538.4,4108.1 3542.2,4096.6 3747.7,4096.6 3746.4,4108.1 							"/>
						</g>
						<g>
							<polygon class="st6" points="3779.8,4108.1 3781.9,4096.6 3987.4,4096.6 3987.8,4108.1 3987.8,4121.2 3779.8,4121.2 							
								"/>
							<polygon class="st7" points="3779.8,4108.1 3781.9,4096.6 3987.4,4096.6 3987.8,4108.1 							"/>
						</g>
						<g>
							<polygon class="st6" points="4021.2,4108.1 4021.6,4096.6 4227.1,4096.6 4229.2,4108.1 4229.2,4121.2 4021.2,4121.2 							
								"/>
							<polygon class="st7" points="4021.2,4108.1 4021.6,4096.6 4227.1,4096.6 4229.2,4108.1 							"/>
						</g>
						<g>
							<polygon class="st6" points="4261.3,4115.6 4261.3,4096.6 4466.8,4096.6 4470.6,4108.1 4470.6,4121.2 4262.5,4121.2 							
								"/>
							<polygon class="st7" points="4262.5,4108.1 4261.3,4096.6 4466.8,4096.6 4470.6,4108.1 							"/>
						</g>
						<g>
							<polygon class="st6" points="4501,4115.8 4501,4096.6 4706.5,4096.6 4712,4108.1 4712,4121.2 4503.9,4121.2 							"/>
							<polygon class="st7" points="4503.9,4108.1 4501,4096.6 4706.5,4096.6 4712,4108.1 							"/>
						</g>
						<g>
							<polygon class="st6" points="4740.7,4115.2 4740.7,4096.6 4946.1,4096.6 4953.4,4108.1 4953.4,4121.2 4745.3,4121.2 							
								"/>
							<polygon class="st7" points="4745.3,4108.1 4740.7,4096.6 4946.1,4096.6 4953.4,4108.1 							"/>
						</g>
						<g>
							<polygon class="st6" points="4980.4,4115.8 4980.4,4096.6 5185.8,4096.6 5194.8,4108.1 5194.8,4121.2 4986.7,4121.2 							
								"/>
							<polygon class="st7" points="4986.7,4108.1 4980.4,4096.6 5185.8,4096.6 5194.8,4108.1 							"/>
						</g>
						<g>
							<polygon class="st6" points="5220.1,4115.9 5220.1,4096.6 5425.5,4096.6 5436.2,4108.1 5436.2,4121.2 5228.1,4121.2 							
								"/>
							<polygon class="st7" points="5228.1,4108.1 5220.1,4096.6 5425.5,4096.6 5436.2,4108.1 							"/>
						</g>
						<g>
							<polygon class="st6" points="5459.8,4114.6 5459.8,4096.6 5665.2,4096.6 5677.6,4108.1 5677.6,4121.2 5469.5,4121.2 							
								"/>
							<polygon class="st7" points="5469.5,4108.1 5677.6,4108.1 5665.2,4096.6 5459.8,4096.6 							"/>
						</g>
					</g>
					<g>
						<g>
							<polygon class="st6" points="5685.4,4125.2 5684.4,4127.6 5396.4,4127.6 5396.4,4117.3 5369.3,4114.2 5369.3,4127.6 
								5383.6,4146 5704.8,4146 5704.8,4132.7 							"/>
							<polygon class="st7" points="5704.8,4132.7 5383.6,4132.7 5369.3,4114.2 5685,4114.2 							"/>
						</g>
						<g>
							<polygon class="st6" points="5329.5,4121.5 5328.9,4127.6 5158.3,4127.6 5161.9,4124 5132.7,4114.2 5132.7,4127.6 
								5146.7,4146 5347.2,4146 5347.2,4132.7 							"/>
							<polygon class="st7" points="5132.7,4114.2 5333.3,4114.2 5347.2,4132.7 5146.7,4132.7 							"/>
						</g>
						<g>
							<polygon class="st6" points="5091,4120.4 5091,4127.6 4918.5,4127.6 4919.2,4123.5 4898.6,4114.2 4898.6,4127.6 4909.7,4146 
								5110.5,4146 5110.5,4132.7 							"/>
							<polygon class="st7" points="4898.6,4114.2 5099.1,4114.2 5110.5,4132.7 4909.7,4132.7 							"/>
						</g>
						<g>
							<polygon class="st6" points="4851.1,4116.6 4852.5,4127.6 4679.6,4127.6 4679.1,4120.9 4664.5,4114.2 4664.5,4127.6 
								4672.8,4146 4873.9,4146 4873.9,4132.7 							"/>
							<polygon class="st7" points="4664.5,4114.2 4865,4114.2 4873.9,4132.7 4672.8,4132.7 							"/>
						</g>
						<g>
							<polygon class="st6" points="4629.6,4116.4 4620.1,4121.7 4624.2,4127.6 4448.1,4127.6 4450.1,4125 4430.3,4114.2 
								4430.3,4127.6 4435.8,4146 4637.2,4146 4637.2,4132.7 							"/>
							<polygon class="st7" points="4430.3,4114.2 4630.9,4114.2 4637.2,4132.7 4435.8,4132.7 							"/>
						</g>
						<g>
							<polygon class="st6" points="4397.4,4130.8 4396.7,4127.6 4392.1,4127.6 4385.3,4123.5 4386.3,4127.6 4208.8,4127.6 
								4208.8,4119.2 4196.2,4114.2 4196.2,4127.6 4198.9,4146 4400.5,4146 4400.5,4132.7 							"/>
							<polygon class="st7" points="4196.2,4114.2 4396.7,4114.2 4400.5,4132.7 4198.9,4132.7 							"/>
						</g>
						<g>
							<polygon class="st6" points="4163,4131.8 4162.7,4127.6 3962.1,4127.6 3962,4146 4163.9,4146 4163.9,4132.7 							"/>
							<polygon class="st7" points="3962.1,4114.2 4162.7,4114.2 4163.9,4132.7 3962,4132.7 							"/>
						</g>
						<g>
							<polygon class="st6" points="3921.3,4120.9 3921.1,4127.6 3736.3,4127.6 3736.3,4126.6 3729.1,4123.5 3725.8,4132.7 
								3725.8,4146 3927.9,4146 3929.3,4127.6 3929.3,4114.2 							"/>
							<polygon class="st7" points="3728.7,4114.2 3929.3,4114.2 3927.9,4132.7 3725.8,4132.7 							"/>
						</g>
						<g>
							<polygon class="st6" points="3685.2,4118.5 3684.9,4127.6 3501.4,4127.6 3501.4,4121.5 3488.9,4132.7 3488.9,4146 
								3691.4,4146 3695.3,4127.6 3695.3,4114.2 							"/>
							<polygon class="st7" points="3494.7,4114.2 3695.3,4114.2 3691.4,4132.7 3488.9,4132.7 							"/>
						</g>
						<g>
							<polygon class="st6" points="3444.5,4120.9 3445.2,4127.6 3273,4127.6 3271.9,4123.5 3263.1,4127.6 3260.7,4127.6 
								3260.1,4129 3252.1,4132.7 3252.1,4146 3454.9,4146 3461.3,4127.6 3461.3,4114.2 							"/>
							<polygon class="st7" points="3260.7,4114.2 3461.3,4114.2 3454.9,4132.7 3252.1,4132.7 							"/>
						</g>
						<g>
							<polygon class="st6" points="3196.6,4123.5 3201,4127.6 3038.2,4127.6 3039,4123.5 3024,4123.5 3015.3,4132.7 3015.3,4146 
								3218.3,4146 3227.3,4127.6 3227.3,4114.2 							"/>
							<polygon class="st7" points="3026.7,4114.2 3227.3,4114.2 3218.3,4132.7 3015.3,4132.7 							"/>
						</g>
						<g>
							<polygon class="st6" points="2965.7,4116.5 2971.7,4127.6 2797.7,4127.6 2795.9,4121.2 2778.5,4132.7 2778.5,4146 
								2981.8,4146 2993.3,4127.6 2993.3,4114.2 							"/>
							<polygon class="st7" points="2792.7,4114.2 2993.3,4114.2 2981.8,4132.7 2778.5,4132.7 							"/>
						</g>
						<g>
							<polygon class="st6" points="2729.9,4117.8 2731.3,4127.6 2569,4127.6 2566.2,4119.4 2541.7,4132.7 2541.7,4146 2745.2,4146 
								2759.3,4127.6 2759.3,4114.2 							"/>
							<polygon class="st7" points="2558.7,4114.2 2759.3,4114.2 2745.2,4132.7 2541.7,4132.7 							"/>
						</g>
						<g>
							<polygon class="st6" points="2493.7,4125.5 2494.8,4127.6 2329.2,4127.6 2328,4121.2 2304.8,4132.7 2304.8,4146 2508.7,4146 
								2525.3,4127.6 2525.3,4114.2 							"/>
							<polygon class="st7" points="2324.7,4114.2 2525.3,4114.2 2508.7,4132.7 2304.8,4132.7 							"/>
						</g>
					</g>
					<g>
						<g>
							<polygon class="st6" points="5710.2,4150 5709.4,4154.1 5540.2,4154.1 5541.7,4147.8 5508,4139.3 5508,4154.1 5528.9,4175.7 
								5734.6,4175.7 5734.6,4160.8 							"/>
							<polygon class="st7" points="5528.9,4160.8 5734.6,4160.8 5711.8,4139.3 5508,4139.3 							"/>
						</g>
						<g>
							<polygon class="st6" points="5472.8,4146.8 5468.4,4154.1 5297.6,4154.1 5297.6,4150 5271.2,4139.3 5271.2,4154.1 
								5289.3,4175.7 5492.2,4175.7 5492.2,4160.8 							"/>
							<polygon class="st7" points="5289.3,4160.8 5492.2,4160.8 5474.1,4139.3 5271.2,4139.3 							"/>
						</g>
						<g>
							<polygon class="st6" points="5220.1,4146 5218.4,4154.1 5063.6,4154.1 5065.7,4146.7 5033.3,4139.3 5033.3,4154.1 
								5048.2,4175.7 5251.4,4175.7 5251.4,4160.8 							"/>
							<polygon class="st7" points="5251.4,4160.8 5048.2,4160.8 5033.3,4139.3 5236.4,4139.3 							"/>
						</g>
						<g>
							<polygon class="st6" points="4999.7,4156 4998.7,4154.1 4995.5,4154.1 4992.5,4152.9 4992.5,4154.1 4819.8,4154.1 
								4822.8,4145.4 4795.5,4139.3 4795.5,4154.1 4807,4175.7 5010.5,4175.7 5010.5,4160.8 							"/>
							<polygon class="st7" points="5010.5,4160.8 4807,4160.8 4795.5,4139.3 4998.7,4139.3 							"/>
						</g>
						<g>
							<polygon class="st6" points="4757.3,4150 4755.9,4154.1 4579.1,4154.1 4579.9,4148.4 4557.6,4139.3 4557.6,4154.1 
								4565.9,4175.7 4769.7,4175.7 4769.7,4160.8 							"/>
							<polygon class="st7" points="4769.7,4160.8 4565.9,4160.8 4557.6,4139.3 4761,4139.3 							"/>
						</g>
						<g>
							<polygon class="st6" points="4524.3,4158 4523.3,4154.1 4517.8,4154.1 4510.9,4150 4511.7,4154.1 4338.4,4154.1 
								4337.7,4146.7 4319.8,4139.3 4319.8,4154.1 4324.7,4175.7 4528.9,4175.7 4528.9,4160.8 							"/>
							<polygon class="st7" points="4528.9,4160.8 4324.7,4160.8 4319.8,4139.3 4523.3,4139.3 							"/>
						</g>
						<g>
							<polygon class="st6" points="4286.1,4158.8 4285.6,4154.1 4281.6,4154.1 4280.4,4152.9 4280.4,4154.1 4095.2,4154.1 
								4094.8,4144.7 4082,4139.3 4082,4154.1 4083.6,4175.7 4288,4175.7 4288,4160.8 							"/>
							<polygon class="st7" points="4288,4160.8 4083.6,4160.8 4082,4139.3 4285.6,4139.3 							"/>
						</g>
						<g>
							<polygon class="st6" points="4045.7,4152.7 4045.7,4154.1 3844.6,4154.1 3844.2,4159.9 3843,4160.8 3843,4175.7 
								4047.7,4175.7 4048.4,4154.1 4048.4,4139.3 							"/>
							<polygon class="st7" points="4047.7,4160.8 3843,4160.8 3844.6,4139.3 4048.4,4139.3 							"/>
						</g>
						<g>
							<polygon class="st6" points="3800.5,4151.6 3800.2,4154.1 3620.4,4154.1 3621,4147.7 3611.6,4154.1 3606.9,4154.1 3606,4158 
								3601.9,4160.8 3601.9,4175.7 3807,4175.7 3810.7,4154.1 3810.7,4139.3 							"/>
							<polygon class="st7" points="3807,4160.8 3601.9,4160.8 3606.9,4139.3 3810.7,4139.3 							"/>
						</g>
						<g>
							<polygon class="st6" points="3552.8,4151.3 3552.8,4154.1 3383.3,4154.1 3383.8,4150 3375.1,4154.1 3369.1,4154.1 
								3367.8,4157.5 3360.9,4160.8 3360.9,4175.7 3566.2,4175.7 3573.1,4154.1 3573.1,4139.3 							"/>
							<polygon class="st7" points="3566.2,4160.8 3360.9,4160.8 3369.1,4139.3 3573.1,4139.3 							"/>
						</g>
						<g>
							<polygon class="st6" points="3313.7,4143.9 3314.5,4154.1 3138.5,4154.1 3138.5,4148.7 3119.8,4160.8 3119.8,4175.7 
								3325.5,4175.7 3335.5,4154.1 3335.5,4139.3 							"/>
							<polygon class="st7" points="3325.5,4160.8 3119.8,4160.8 3131.3,4139.3 3335.5,4139.3 							"/>
						</g>
						<g>
							<polygon class="st6" points="3072.3,4144.9 3076.7,4154.1 2897.6,4154.1 2897.6,4150 2878.8,4160.8 2878.8,4175.7 
								3084.7,4175.7 3097.9,4154.1 3097.9,4139.3 							"/>
							<polygon class="st7" points="3084.7,4160.8 2878.8,4160.8 2893.6,4139.3 3097.9,4139.3 							"/>
						</g>
						<g>
							<polygon class="st6" points="2842.6,4140.5 2841.7,4154.1 2663.7,4154.1 2665.5,4146.1 2637.7,4160.8 2637.7,4175.7 
								2844,4175.7 2860.3,4154.1 2860.3,4139.3 							"/>
							<polygon class="st7" points="2844,4160.8 2637.7,4160.8 2655.8,4139.3 2860.3,4139.3 							"/>
						</g>
						<g>
							<polygon class="st6" points="2596.2,4147.3 2595.3,4155.9 2311.4,4155.9 2315.5,4146.2 2274.5,4160.8 2274.5,4177.5 
								2604,4177.5 2621.9,4155.9 2621.9,4139.3 							"/>
							<polygon class="st7" points="2621.9,4139.3 2297.7,4139.3 2274.5,4160.8 2604,4160.8 							"/>
						</g>
					</g>
					<g>
						<g>
							<polygon class="st6" points="5317.8,4175.8 5315.9,4181.5 5151,4181.5 5153.8,4175.8 5112.4,4167.5 5112.4,4181.5 
								5126.9,4202.4 5335.7,4202.4 5335.7,4188.4 							"/>
							<polygon class="st7" points="5126.9,4188.4 5335.7,4188.4 5318.8,4167.5 5112.4,4167.5 							"/>
						</g>
						<g>
							<polygon class="st6" points="5742.5,4182.3 5741.7,4181.5 5739.8,4181.5 5727.5,4177.9 5728,4181.5 5385.7,4181.5 
								5385.7,4174.5 5352.6,4167.5 5352.6,4181.5 5369.3,4202.4 5763.9,4202.4 5763.9,4188.4 							"/>
							<polygon class="st7" points="5369.3,4188.4 5763.9,4188.4 5741.7,4167.5 5352.6,4167.5 							"/>
						</g>
						<g>
							<polygon class="st6" points="5063.9,4174.2 5065.3,4181.5 4893.7,4181.5 4893.7,4174.2 4870.3,4167.5 4870.3,4181.5 
								4881.6,4202.4 5090.4,4202.4 5090.4,4188.4 							"/>
							<polygon class="st7" points="5090.4,4188.4 4881.6,4188.4 4870.3,4167.5 5076.6,4167.5 							"/>
						</g>
						<g>
							<polygon class="st6" points="4834.7,4181.8 4834.5,4181.5 4834.1,4181.5 4820.1,4172.7 4820.1,4181.5 4652.6,4181.5 
								4652.6,4174.5 4628.1,4167.5 4628.1,4181.5 4636.3,4202.4 4845.1,4202.4 4845.1,4188.4 							"/>
							<polygon class="st7" points="4845.1,4188.4 4636.3,4188.4 4628.1,4167.5 4834.5,4167.5 							"/>
						</g>
						<g>
							<polygon class="st6" points="4587.2,4175.8 4586.2,4181.5 4411.9,4181.5 4411.9,4175.8 4386,4167.5 4386,4181.5 4391,4202.4 
								4599.8,4202.4 4599.8,4188.4 							"/>
							<polygon class="st7" points="4599.8,4188.4 4391,4188.4 4386,4167.5 4592.3,4167.5 							"/>
						</g>
						<g>
							<polygon class="st6" points="4351.2,4186.5 4350.1,4181.5 4342.6,4181.5 4330.2,4174.2 4330.2,4181.5 4157.5,4181.5 
								4157.5,4174.5 4143.8,4167.5 4143.8,4181.5 4145.7,4202.4 4354.5,4202.4 4354.5,4188.4 							"/>
							<polygon class="st7" points="4354.5,4188.4 4145.7,4188.4 4143.8,4167.5 4350.1,4167.5 							"/>
						</g>
						<g>
							<polygon class="st6" points="4109,4188 4108.6,4181.5 3902.2,4181.5 3901.9,4188 3901,4188.4 3901,4202.4 4109.8,4202.4 
								4109.8,4188.4 							"/>
							<polygon class="st7" points="4109.8,4188.4 3901,4188.4 3902.2,4167.5 4108.6,4167.5 							"/>
						</g>
						<g>
							<polygon class="st6" points="3852,4173.2 3852,4181.5 3673.9,4181.5 3673.9,4174.1 3664.3,4181.5 3660.7,4181.5 3660,4184.7 
								3656.3,4187.5 3656.3,4188.4 3656.3,4202.4 3865.1,4202.4 3867,4181.5 3867,4167.5 							"/>
							<polygon class="st7" points="3865.1,4188.4 3656.3,4188.4 3660.7,4167.5 3867,4167.5 							"/>
						</g>
						<g>
							<polygon class="st6" points="3612.1,4174.5 3610.6,4181.5 3428.1,4181.5 3428.1,4174 3419.3,4181.5 3418.5,4181.5 
								3418.2,4182.4 3411,4188.4 3411,4202.4 3619.8,4202.4 3624.9,4181.5 3624.9,4167.5 							"/>
							<polygon class="st7" points="3619.8,4188.4 3411,4188.4 3418.5,4167.5 3624.9,4167.5 							"/>
						</g>
						<g>
							<polygon class="st6" points="3354.2,4177.9 3354.2,4181.5 3183.7,4181.5 3182,4176.7 3165.7,4188.4 3165.7,4202.4 
								3374.6,4202.4 3382.7,4181.5 3382.7,4167.5 							"/>
							<polygon class="st7" points="3374.6,4188.4 3165.7,4188.4 3176.4,4167.5 3382.7,4167.5 							"/>
						</g>
						<g>
							<polygon class="st6" points="3117.1,4177.9 3117.1,4181.5 2956.1,4181.5 2955.2,4174.3 2937.6,4181.5 2934.2,4181.5 
								2933,4183.3 2920.4,4188.4 2920.4,4202.4 3129.3,4202.4 3140.6,4181.5 3140.6,4167.5 							"/>
							<polygon class="st7" points="3129.3,4188.4 2920.4,4188.4 2934.2,4167.5 3140.6,4167.5 							"/>
						</g>
						<g>
							<polygon class="st6" points="2873,4176.1 2874.4,4181.5 2700.5,4181.5 2701.8,4174 2675.1,4188.4 2675.1,4202.4 2884,4202.4 
								2898.4,4181.5 2898.4,4167.5 							"/>
							<polygon class="st7" points="2884,4188.4 2675.1,4188.4 2692,4167.5 2898.4,4167.5 							"/>
						</g>
						<g>
							<polygon class="st6" points="2631.8,4172.8 2631.8,4181.5 2272.4,4181.5 2272.4,4174.9 2244.8,4188.4 2244.8,4202.4 
								2637.5,4202.4 2655,4181.5 2655,4167.5 							"/>
							<polygon class="st7" points="2244.8,4188.4 2637.5,4188.4 2655,4167.5 2267.3,4167.5 							"/>
						</g>
					</g>
					<g>
						<g>
							<polygon class="st6" points="5214,4206.5 5213.3,4210.6 5038.9,4210.6 5038.9,4203.2 5006.5,4195.8 5006.5,4210.6 
								5020.8,4232 5233.5,4232 5233.5,4217.2 							"/>
							<polygon class="st7" points="5233.5,4217.2 5020.8,4217.2 5006.5,4195.8 5217.8,4195.8 							"/>
						</g>
						<g>
							<polygon class="st6" points="5767.7,4202.4 5765,4210.6 5285.1,4210.6 5287.7,4203.5 5253.9,4195.8 5253.9,4210.6 
								5271.2,4232 5794.5,4232 5794.5,4217.2 							"/>
							<polygon class="st7" points="5794.5,4217.2 5271.2,4217.2 5253.9,4195.8 5771.8,4195.8 							"/>
						</g>
						<g>
							<polygon class="st6" points="4970.7,4203.5 4966.6,4210.6 4782.4,4210.6 4780.9,4201 4760.4,4195.8 4760.4,4210.6 
								4771.3,4232 4984,4232 4984,4217.2 							"/>
							<polygon class="st7" points="4771.3,4217.2 4760.4,4195.8 4971.7,4195.8 4984,4217.2 							"/>
						</g>
						<g>
							<polygon class="st6" points="4725.1,4206.5 4712,4207.9 4714.6,4210.6 4533.1,4210.6 4533.8,4204.8 4514.2,4195.8 
								4514.2,4210.6 4521.8,4232 4734.6,4232 4734.6,4217.2 							"/>
							<polygon class="st7" points="4521.8,4217.2 4514.2,4195.8 4725.6,4195.8 4734.6,4217.2 							"/>
						</g>
						<g>
							<polygon class="st6" points="4477.3,4202.8 4468.2,4210.6 4282.4,4210.6 4284.9,4202.1 4268.1,4195.8 4268.1,4210.6 
								4272.4,4232 4485.1,4232 4485.1,4217.2 							"/>
							<polygon class="st7" points="4272.4,4217.2 4268.1,4195.8 4479.4,4195.8 4485.1,4217.2 							"/>
						</g>
						<g>
							<polygon class="st6" points="4233.4,4211.8 4233.3,4210.6 4232.9,4210.6 4229.1,4201.4 4223.7,4210.6 4031.6,4210.6 
								4032,4203.8 4022,4195.8 4022,4210.6 4022.9,4232 4235.6,4232 4235.6,4217.2 							"/>
							<polygon class="st7" points="4022.9,4217.2 4022,4195.8 4233.3,4195.8 4235.6,4217.2 							"/>
						</g>
						<g>
							<polygon class="st6" points="3981.3,4202.9 3981.9,4210.6 3787.8,4210.6 3789,4200.9 3780.2,4210.6 3776.5,4210.6 
								3776,4215.2 3774.2,4217.2 3774.2,4232 3986.9,4232 3987.8,4210.6 3987.8,4195.8 							"/>
							<polygon class="st7" points="3774.2,4217.2 3776.5,4195.8 3987.8,4195.8 3986.9,4217.2 							"/>
						</g>
						<g>
							<polygon class="st6" points="3728.2,4206.5 3727.9,4210.6 3540.5,4210.6 3541,4206.5 3534.7,4210.6 3530.4,4210.6 
								3529.5,4214.1 3524.7,4217.2 3524.7,4232 3737.4,4232 3741.7,4210.6 3741.7,4195.8 							"/>
							<polygon class="st7" points="3524.7,4217.2 3530.4,4195.8 3741.7,4195.8 3737.4,4217.2 							"/>
						</g>
						<g>
							<polygon class="st6" points="3474.6,4203.2 3474.2,4210.6 3307.3,4210.6 3308.1,4204.2 3291.8,4210.6 3284.2,4210.6 
								3282.7,4214.2 3275.3,4217.2 3275.3,4232 3488,4232 3495.6,4210.6 3495.6,4195.8 							"/>
							<polygon class="st7" points="3275.3,4217.2 3284.2,4195.8 3495.6,4195.8 3488,4217.2 							"/>
						</g>
						<g>
							<polygon class="st6" points="3224,4207.7 3225.5,4210.6 3056.7,4210.6 3061.5,4203.7 3043.2,4210.6 3038.1,4210.6 
								3036.7,4213.1 3025.8,4217.2 3025.8,4232 3238.5,4232 3249.4,4210.6 3249.4,4195.8 							"/>
							<polygon class="st7" points="3025.8,4217.2 3038.1,4195.8 3249.4,4195.8 3238.5,4217.2 							"/>
						</g>
						<g>
							<polygon class="st6" points="2973.5,4203.9 2976.8,4210.6 2802.1,4210.6 2803.3,4204.9 2776.3,4217.2 2776.3,4232 
								2989.1,4232 3003.3,4210.6 3003.3,4195.8 							"/>
							<polygon class="st7" points="2776.3,4217.2 2989.1,4217.2 3003.3,4195.8 2792,4195.8 							"/>
						</g>
						<g>
							<polygon class="st6" points="2721.1,4206.5 2723.3,4210.6 2246.6,4210.6 2249.7,4201.1 2213.7,4217.2 2213.7,4232 
								2739.6,4232 2756.7,4210.6 2756.7,4195.8 							"/>
							<polygon class="st7" points="2739.6,4217.2 2213.7,4217.2 2236.7,4195.8 2756.7,4195.8 							"/>
						</g>
					</g>
					<g>
						<g>
							<polygon class="st6" points="5601.9,4237.6 5601.9,4250 5611.8,4262.8 5829.8,4262.8 5829.8,4250.4 							"/>
							<polygon class="st7" points="5816.2,4237.6 5601.9,4237.6 5611.8,4250.4 5829.8,4250.4 							"/>
						</g>
						<g>
							<polygon class="st6" points="5552.6,4233.7 5551.2,4237.6 5367.5,4237.6 5365.4,4231.2 5338.3,4224.8 5338.3,4237.6 
								5358.7,4263.2 5577.1,4263.2 5577.1,4250.4 							"/>
							<polygon class="st7" points="5577.1,4250.4 5358.7,4250.4 5338.3,4224.8 5554.1,4224.8 							"/>
						</g>
						<g>
							<polygon class="st6" points="5096.1,4237.6 5096.1,4250.4 5106,4263.2 5322.5,4263.2 5322.5,4250.4 							"/>
							<polygon class="st7" points="5312.6,4237.6 5096.1,4237.6 5106,4250.4 5322.5,4250.4 							"/>
						</g>
						<g>
							<polygon class="st6" points="5057.7,4242.9 5054.8,4237.6 5049.8,4237.6 5044.4,4234.1 5044.4,4237.6 4855.8,4237.6 
								4856.4,4232 4836.9,4224.8 4836.9,4237.6 4848.7,4263.2 5069.2,4263.2 5069.2,4250.4 							"/>
							<polygon class="st7" points="5069.2,4250.4 4848.7,4250.4 4836.9,4224.8 5054.8,4224.8 							"/>
						</g>
						<g>
							<polygon class="st6" points="4803,4244.7 4799.7,4237.6 4792.4,4237.6 4782,4230.8 4783.6,4237.6 4547.8,4237.6 
								4550.8,4230.8 4525.3,4224.8 4525.3,4237.6 4533.8,4263.2 4811.7,4263.2 4811.7,4250.4 							"/>
							<polygon class="st7" points="4811.7,4250.4 4533.8,4250.4 4525.3,4224.8 4799.7,4224.8 							"/>
						</g>
						<g>
							<polygon class="st6" points="4490.3,4246.9 4487.5,4237.6 3279.5,4237.6 3279.5,4232 3273.7,4237.6 3271.4,4237.6 
								3269.7,4241.5 3260.4,4250.4 3260.4,4263.2 4495.4,4263.2 4495.4,4250.4 							"/>
							<polygon class="st7" points="4495.4,4250.4 3260.4,4250.4 3271.4,4224.8 4487.5,4224.8 							"/>
						</g>
						<g>
							<polygon class="st6" points="3210.6,4233.7 3212.1,4237.6 2986.4,4237.6 2989.1,4232 2974.8,4237.6 2958.7,4237.6 
								2953.3,4246.2 2942.4,4250.4 2942.4,4263.2 3222.5,4263.2 3234.2,4237.6 3234.2,4224.8 							"/>
							<polygon class="st7" points="3222.5,4250.4 2942.4,4250.4 2958.7,4224.8 3234.2,4224.8 							"/>
						</g>
						<g>
							<polygon class="st6" points="2895.1,4235.8 2896.8,4237.6 2718.7,4237.6 2719,4234.1 2712.4,4237.6 2708.3,4237.6 
								2705.4,4241.4 2688.4,4250.4 2688.4,4263.2 2905.5,4263.2 2923,4237.6 2923,4224.8 							"/>
							<polygon class="st7" points="2905.5,4250.4 2688.4,4250.4 2708.3,4224.8 2923,4224.8 							"/>
						</g>
						<polygon class="st6" points="2671.8,4224.8 2671.8,4237.6 2656.3,4250.4 2646.8,4236.2 						"/>
						<g>
							<polygon class="st6" points="2460.8,4237.6 2461.2,4233.3 2433.1,4250.4 2433.1,4263.2 2651.8,4263.2 2671.8,4237.6 							
								"/>
							<polygon class="st7" points="2651.8,4250.4 2433.1,4250.4 2456.9,4224.8 2671.8,4224.8 							"/>
						</g>
						<g>
							<polygon class="st6" points="2393.5,4230.4 2396.7,4237.6 2213.5,4237.6 2213.7,4235.3 2208.2,4237.6 2205.4,4237.6 
								2203.1,4239.8 2177.8,4250.4 2177.8,4263.2 2398.2,4263.2 2420.7,4237.6 2420.7,4224.8 							"/>
							<polygon class="st7" points="2398.2,4250.4 2177.8,4250.4 2205.4,4224.8 2420.7,4224.8 							"/>
						</g>
					</g>
				</g>
			</g>
			<linearGradient id="SVGID_2_" gradientUnits="userSpaceOnUse" x1="3634.0581" y1="4483.2969" x2="4365.9512" y2="4483.2969">
				<stop  offset="0" style="stop-color:#757578"/>
				<stop  offset="3.776824e-02" style="stop-color:#848489"/>
				<stop  offset="9.004155e-02" style="stop-color:#94949A"/>
				<stop  offset="0.1551" style="stop-color:#A0A0A7"/>
				<stop  offset="0.2465" style="stop-color:#A8A9B0"/>
				<stop  offset="0.5" style="stop-color:#ABABB2"/>
				<stop  offset="0.754" style="stop-color:#A8A9B0"/>
				<stop  offset="0.8455" style="stop-color:#A0A1A8"/>
				<stop  offset="0.9107" style="stop-color:#94959C"/>
				<stop  offset="0.9631" style="stop-color:#85868C"/>
				<stop  offset="1" style="stop-color:#76787D"/>
			</linearGradient>
			<path class="st8" d="M4318.7,4448.5c-26.9,0-318.7,0-318.7,0s-291.7,0-318.7,0s-47.3,11.5-47.3,11.5v3.8
				c0,30,24.3,54.3,54.3,54.3h623.2c30,0,54.3-24.3,54.3-54.3v-3.8C4366,4459.9,4345.6,4448.5,4318.7,4448.5z"/>
		</g>
	</g>
	<g>
		<g>
			<polygon class="st9" points="4827.7,2330.9 4722.6,3088.6 4115.8,3699.3 3299.8,3188 3177.1,2394.6 			"/>
			<polygon class="st10" points="4827.7,2330.9 4771.6,2333 4139.6,2846.4 4115.8,3699.3 4722.6,3088.6 			"/>
			<path class="st11" d="M4107.3,2839.1L3171.9,2446c-19.5-7.5-28.4-11.7-31.9-35.8l-37.9-235.8c-2.6-19.6,5.2-24.1,26.8-30.4
				l826.7-238l909.6,183.4c23.6,3.6,33.2,15.1,33.2,33.8l-36.2,218.6c-3.9,22.3-7.5,25.8-25.2,38.3l-675.2,457.4
				C4150.1,2845.5,4138.5,2852.2,4107.3,2839.1z"/>
			<path class="st12" d="M4865.1,2089.4l-113.5-22.9L4308.9,2242l-160.1,275.2l-9.2,329.2c9.5-0.6,15.8-4.6,22.2-9l675.2-457.4
				c17.7-12.5,21.3-16.1,25.2-38.3l36.2-218.6C4898.4,2104.5,4888.7,2093,4865.1,2089.4z"/>
			<path class="st13" d="M4865.1,2089.4L3955.6,1906l-826.7,238c-15,4.3-23.3,7.8-26.1,16.1l1026.6,353.1c14.9,5.1,23,5.6,32.3,0
				l731.5-409.4C4888,2096.4,4879,2091.5,4865.1,2089.4z"/>
		</g>
	</g>
	<g>
		<g>
			<g>
				<g>
					<g>
						
							<rect x="5477" y="2780.2" transform="matrix(0.7071 -0.7071 0.7071 0.7071 -428.6493 4778.8755)" width="154.5" height="253.3"/>
						<path d="M6055,3492.3c-18,17.9-46.8,18.2-64.5,0.5l-213.1-213.1c-17.7-17.7-17.4-46.5,0.5-64.5l83.5-83.5
							c18-17.9,46.8-18.2,64.5-0.5l213.1,213.1c17.7,17.7,17.4,46.5-0.5,64.5L6055,3492.3z"/>
						
							<rect x="5712.8" y="2833.7" transform="matrix(0.7064 -0.7078 0.7078 0.7064 -537.0379 5049.2051)" class="st14" width="210" height="676.5"/>
						
							<rect x="5800.4" y="2797.3" transform="matrix(0.7064 -0.7078 0.7078 0.7064 -500.7242 5064.0088)" class="st15" width="107.4" height="676.5"/>
					</g>
					<path d="M5157,1731.7c-357.7-72-705.9,159.7-777.9,517.3c-72,357.7,159.7,705.9,517.3,777.9c357.7,72,705.9-159.7,777.9-517.3
						C5746.3,2151.9,5514.7,1803.6,5157,1731.7z M4909.6,2961.6c-321.6-64.7-529.9-377.8-465.2-699.4
						c64.7-321.6,377.8-529.9,699.4-465.2c321.6,64.7,529.8,377.8,465.1,699.4C5544.3,2818,5231.2,3026.3,4909.6,2961.6z"/>
				</g>
			</g>
			
				<ellipse transform="matrix(0.7071 -0.7071 0.7071 0.7071 -210.1175 4251.3218)" class="st16" cx="5026.7" cy="2379.3" rx="594" ry="594"/>
		</g>
		<path class="st17" d="M4914.3,1862.8c23.8,32.1-35.9,116.6-133.2,188.7c-97.4,72-195.6,104.4-219.4,72.2
			c-23.8-32.1,35.8-116.6,133.2-188.7C4792.3,1863,4890.5,1830.7,4914.3,1862.8z"/>
	</g>
	<g>
		<path class="st13" d="M1922.1,5486.8l-88.5-348.7h47.6l41.4,176.4c10.3,43.5,19.7,86.9,25.9,120.5h1c5.7-34.7,16.6-76,28.5-121
			l46.6-175.9h47.1L2114,5315c9.8,41.4,19.1,82.8,24.3,119.5h1c7.2-38.3,17.1-77.1,27.9-120.5l46-175.9h46l-98.8,348.7h-47.1
			l-44-181.6c-10.9-44.5-18.1-78.6-22.8-113.8h-1c-6.2,34.7-14,68.8-26.9,113.8l-49.7,181.6H1922.1z"/>
		<path class="st13" d="M2347.8,5138.1V5284h168.6v-145.9h45.5v348.7h-45.5v-163.5h-168.6v163.5h-45v-348.7H2347.8z"/>
		<path class="st13" d="M2685.1,5138.1v348.7h-45v-348.7H2685.1z"/>
		<path class="st13" d="M2829.9,5176.4h-106v-38.3H2982v38.3h-106.6v310.4h-45.5V5176.4z"/>
		<path class="st13" d="M3201.3,5323.3h-135.5V5449h151v37.8h-196.1v-348.7h188.3v37.8h-143.3v110.2h135.5V5323.3z"/>
		<path class="st13" d="M3384.9,5142.8c19.7-4.1,50.7-7.2,82.2-7.2c45,0,74,7.8,95.7,25.3c18.1,13.4,29,34.1,29,61.6
			c0,33.6-22.2,63.1-59,76.6v1c33.1,8.3,71.9,35.7,71.9,87.4c0,30-11.9,52.8-29.5,69.8c-24.3,22.2-63.6,32.6-120.5,32.6
			c-31,0-54.8-2.1-69.8-4.1V5142.8z M3429.9,5285.5h40.9c47.6,0,75.5-24.8,75.5-58.5c0-40.9-31-56.9-76.6-56.9
			c-20.7,0-32.6,1.6-39.8,3.1V5285.5z M3429.9,5452.6c8.8,1.6,21.7,2.1,37.8,2.1c46.6,0,89.5-17.1,89.5-67.8
			c0-47.6-40.9-67.2-90-67.2h-37.2V5452.6z"/>
		<path class="st13" d="M3963.3,5308.8c0,120-72.9,183.6-161.9,183.6c-92.1,0-156.7-71.4-156.7-176.9
			c0-110.7,68.8-183.1,161.9-183.1C3901.7,5132.4,3963.3,5205.4,3963.3,5308.8z M3692.7,5314.5c0,74.5,40.3,141.2,111.2,141.2
			c71.4,0,111.7-65.7,111.7-144.8c0-69.3-36.2-141.7-111.2-141.7C3730,5169.2,3692.7,5238,3692.7,5314.5z"/>
		<path class="st13" d="M4198.6,5486.8l-44.5-77.1c-18.1-29.5-29.5-48.6-40.3-68.8h-1c-9.8,20.2-19.7,38.8-37.8,69.3l-41.9,76.6
			h-51.7l106.6-176.4l-102.4-172.3h52.2l46,81.7c12.9,22.8,22.8,40.3,32.1,59h1.6c9.8-20.7,18.6-36.7,31.6-59l47.6-81.7h51.7
			l-106,169.7l108.6,179H4198.6z"/>
		<path class="st13" d="M4457.8,5176.4h-106v-38.3h258.1v38.3h-106.6v310.4h-45.5V5176.4z"/>
		<path class="st13" d="M4829.2,5323.3h-135.5V5449h151v37.8h-196.1v-348.7H4837v37.8h-143.3v110.2h135.5V5323.3z"/>
		<path class="st13" d="M4897,5431.9c20.2,12.4,49.7,22.8,80.7,22.8c46,0,72.9-24.3,72.9-59.5c0-32.6-18.6-51.2-65.7-69.3
			c-56.9-20.2-92.1-49.7-92.1-98.8c0-54.3,45-94.7,112.8-94.7c35.7,0,61.6,8.3,77.1,17.1l-12.4,36.7c-11.4-6.2-34.7-16.6-66.2-16.6
			c-47.6,0-65.7,28.5-65.7,52.2c0,32.6,21.2,48.6,69.3,67.2c59,22.8,89,51.2,89,102.4c0,53.8-39.8,100.4-122.1,100.4
			c-33.6,0-70.4-9.8-89-22.2L4897,5431.9z"/>
		<path class="st13" d="M5224.4,5176.4h-106v-38.3h258.1v38.3h-106.6v310.4h-45.5V5176.4z"/>
		<path class="st13" d="M5460.3,5138.1v348.7h-45v-348.7H5460.3z"/>
		<path class="st13" d="M5538.9,5486.8v-348.7h49.1l111.7,176.4c25.9,40.9,46,77.6,62.6,113.3l1-0.5c-4.1-46.6-5.2-89-5.2-143.3
			v-145.9h42.4v348.7h-45.5l-110.7-176.9c-24.3-38.8-47.6-78.6-65.2-116.4l-1.6,0.5c2.6,44,3.6,85.9,3.6,143.8v149H5538.9z"/>
		<path class="st13" d="M6144.7,5471.2c-20.2,7.2-60,19.1-107.1,19.1c-52.8,0-96.2-13.4-130.4-46c-30-29-48.6-75.5-48.6-129.8
			c0.5-104,71.9-180,188.8-180c40.3,0,71.9,8.8,86.9,16l-10.9,36.7c-18.6-8.3-41.9-15-77.1-15c-84.8,0-140.2,52.8-140.2,140.2
			c0,88.5,53.3,140.7,134.5,140.7c29.5,0,49.7-4.1,60-9.3v-104h-70.9v-36.2h114.8V5471.2z"/>
	</g>
</g>
</svg>
